<svg xmlns="http://www.w3.org/2000/svg" width="48" height="48" viewBox="0 0 48 48" color="BLUE"><g fill="none" fill-rule="evenodd"><path fill="#83D6FB" d="M18 20a5 5 0 1 1 0-10 5 5 0 0 1 0 10zm-9.102 5.82A10.989 10.989 0 0 1 18 21c3.784 0 7.122 1.911 9.102 4.82A11.973 11.973 0 0 1 18 30c-3.64 0-6.901-1.62-9.102-4.18zm20.337 6.244a18.108 18.108 0 0 0 2.829-2.829l4.131 4.132c-.165.1-.32.223-.463.365l-2 2a2.507 2.507 0 0 0-.365.463l-4.132-4.131z"></path><path stroke="#1F8EED" stroke-width="4" d="M18 34c8.837 0 16-7.163 16-16S26.837 2 18 2 2 9.163 2 18s7.163 16 16 16zm0 0C9.163 34 2 26.837 2 18S9.163 2 18 2s16 7.163 16 16-7.163 16-16 16zm19.146 1.146l-2 2a.5.5 0 0 0 0 .708l8 8a.5.5 0 0 0 .708 0l2-2a.5.5 0 0 0 0-.708l-8-8a.5.5 0 0 0-.708 0z"></path></g></svg>