<svg xmlns="http://www.w3.org/2000/svg" width="48" height="48" viewBox="0 0 48 48" color="BLUE"><g fill="none" fill-rule="evenodd"><path fill="#1F8EED" d="M37 6h5a1 1 0 0 1 1 1v40a1 1 0 0 1-1 1H12a1 1 0 0 1-1-1v-5h25a1 1 0 0 0 1-1V6zM13.546 29.09a8.003 8.003 0 0 1 14.908 0A10.96 10.96 0 0 1 21 32a10.96 10.96 0 0 1-7.454-2.91zM21 23a4 4 0 1 1 0-8 4 4 0 0 1 0 8z"></path><path fill="#83D6FB" d="M6 0h30a1 1 0 0 1 1 1v40a1 1 0 0 1-1 1H6a1 1 0 0 1-1-1V1a1 1 0 0 1 1-1zm15 32c6.075 0 11-4.925 11-11s-4.925-11-11-11-11 4.925-11 11 4.925 11 11 11z"></path></g></svg>